<?xml version="1.0" standalone="no"?>
<!DOCTYPE svg PUBLIC "-//W3C//DTD SVG 20010904//EN"
 "http://www.w3.org/TR/2001/REC-SVG-20010904/DTD/svg10.dtd">
<svg version="1.0" xmlns="http://www.w3.org/2000/svg"
 width="512.000000pt" height="512.000000pt" viewBox="0 0 512.000000 512.000000"
 preserveAspectRatio="xMidYMid meet">
<metadata>
Created by potrace 1.11, written by Peter Selinger 2001-2013
</metadata>
<g transform="translate(0.000000,512.000000) scale(0.100000,-0.100000)"
fill="#000000" stroke="none">
<path d="M1865 5015 c-58 -16 -95 -29 -95 -35 0 -4 -6 -7 -12 -8 -36 -3 -151
-42 -167 -56 -10 -9 -22 -16 -28 -16 -9 0 -37 -52 -38 -70 0 -3 -3 -9 -6 -15
-9 -15 -4 -128 6 -144 6 -10 4 -12 -5 -6 -9 6 -11 4 -5 -6 5 -7 10 -27 11 -44
1 -16 3 -30 4 -30 0 0 3 -25 5 -55 2 -30 6 -68 9 -85 3 -16 8 -52 11 -80 3
-27 7 -63 9 -80 2 -16 7 -59 11 -95 4 -36 10 -83 14 -105 4 -22 7 -57 6 -77 0
-21 2 -38 5 -38 3 0 7 -15 8 -32 1 -18 7 -68 13 -111 13 -99 10 -221 -8 -306
-7 -36 -14 -73 -15 -81 0 -8 -5 -21 -11 -27 -5 -7 -6 -13 -2 -13 4 0 2 -7 -5
-15 -7 -8 -10 -15 -6 -15 3 0 -12 -35 -34 -77 -45 -89 -149 -232 -167 -233 -7
0 -13 -4 -13 -9 0 -8 -43 -46 -168 -151 -13 -11 -25 -20 -28 -20 -9 0 -94 -65
-94 -72 0 -4 -7 -8 -15 -8 -9 0 -18 -7 -21 -15 -4 -8 -12 -15 -20 -15 -7 0
-19 -8 -26 -18 -7 -9 -29 -29 -48 -44 -77 -59 -229 -205 -289 -278 -20 -24
-46 -55 -59 -68 -12 -12 -22 -27 -22 -32 0 -6 -5 -10 -11 -10 -5 0 -7 -4 -4
-10 3 -5 1 -10 -5 -10 -6 0 -17 -15 -25 -34 -8 -19 -19 -37 -24 -40 -5 -4 -27
-41 -49 -84 -116 -228 -145 -462 -88 -717 27 -123 139 -435 155 -435 5 0 13
-17 19 -38 7 -21 21 -47 32 -57 11 -10 20 -24 20 -32 0 -7 5 -13 10 -13 6 0
10 -5 10 -11 0 -6 6 -16 13 -24 6 -7 28 -32 46 -55 45 -54 41 -51 166 -155 17
-14 38 -28 47 -31 10 -3 18 -10 18 -15 0 -5 9 -9 20 -9 11 0 20 -3 20 -8 0 -4
12 -13 27 -19 16 -7 53 -23 83 -36 54 -24 177 -61 235 -71 17 -3 41 -8 55 -11
53 -10 83 -14 168 -20 226 -16 449 -5 707 35 84 14 87 13 80 -10 -3 -11 -2
-20 3 -20 6 0 8 -8 6 -18 -3 -11 4 -23 23 -33 28 -17 42 -17 83 -4 20 6 22 5
15 -25 -19 -85 -11 -198 13 -201 4 0 16 -2 27 -4 11 -2 31 4 45 15 24 18 26
27 31 148 2 32 15 36 45 13 21 -17 30 -18 52 -9 15 7 39 25 54 42 15 17 30 27
34 23 4 -4 4 -7 0 -7 -4 0 1 -13 10 -29 14 -24 23 -29 52 -27 40 2 56 24 58
81 2 67 1 66 37 45 27 -16 82 -31 122 -35 19 -2 80 28 101 49 11 11 27 36 35
54 8 17 17 32 21 32 11 0 58 -55 58 -69 0 -5 3 -11 8 -13 4 -2 17 -24 30 -50
13 -27 30 -55 38 -63 21 -21 56 -19 82 5 17 16 20 27 15 53 -6 30 -43 102 -81
157 -9 13 -12 22 -7 19 6 -3 22 -11 37 -18 34 -18 68 -8 108 29 39 36 43 37
63 6 9 -13 23 -31 32 -40 9 -9 14 -16 10 -16 -4 0 1 -8 10 -17 21 -21 71 -21
92 0 9 9 16 29 15 46 -1 31 -18 56 -89 130 -32 33 -43 52 -43 75 0 29 5 34 50
54 28 12 55 22 60 22 6 0 18 4 28 10 9 5 44 21 77 36 161 71 399 199 443 237
12 11 22 16 22 11 0 -5 4 -4 8 1 4 6 21 21 37 33 17 12 41 30 53 40 13 9 35
27 48 40 14 12 27 22 30 22 6 0 123 121 149 155 11 14 25 31 32 39 6 7 31 44
55 82 161 253 193 548 102 941 -37 160 -132 383 -187 438 -9 9 -17 20 -17 25
0 8 -167 180 -176 180 -3 0 -28 17 -57 38 -29 21 -74 50 -102 64 -84 44 -139
71 -160 78 -11 4 -31 13 -45 19 -14 6 -34 13 -45 16 -11 2 -46 13 -77 24 -32
11 -58 18 -58 16 0 -3 -12 0 -27 6 -30 12 -50 16 -103 25 -19 3 -65 12 -101
19 -36 8 -91 17 -123 20 -31 4 -66 8 -76 10 -10 2 -50 7 -87 10 -55 5 -203 32
-273 49 -53 14 -210 87 -210 98 0 5 -4 7 -9 4 -4 -3 -16 3 -26 14 -10 11 -22
20 -26 20 -30 0 -210 188 -263 274 -62 102 -135 245 -151 296 -4 14 -12 28
-17 31 -4 3 -10 15 -12 26 -3 11 -9 29 -15 39 -14 26 -63 137 -65 149 -1 6
-12 30 -23 55 -12 25 -50 119 -86 210 -67 172 -98 234 -126 260 -30 27 -100
52 -126 45z"/>
</g>
</svg>
